<svg preserveAspectRatio="xMidYMid" style="max-height: 500px" viewBox="1.3773059881847587 19.25999999999999 497.9886546723952 117.42559999999999" xmlns="http://www.w3.org/2000/svg" width="497.9886546723952" height="117.42559999999999"><defs><linearGradient y2="0.5" y1="0.5" x2="1.5" x1="-0.5" id="editing-outline-gradient"><stop stop-color="#ee4208" offset="0"/><stop stop-color="#4139ff" offset="1"/></linearGradient><filter height="300%" width="300%" y="-100%" x="-100%" id="editing-outline"><feMorphology result="outline" radius="4" operator="dilate" in="SourceGraphic"/><feComposite in2="SourceAlpha" in="outline" operator="out"/></filter></defs><g filter="url(#editing-outline)"><g transform="translate(4.524980545043945, 125.85000991821289)"><path fill="url(#editing-outline-gradient)" d="M4.65-36.45L4.65-36.45L4.65-36.45Q4.65-46.35 7.65-53.63L7.65-53.63L7.65-53.63Q10.65-60.90 15.97-65.70L15.97-65.70L15.97-65.70Q21.30-70.50 28.43-72.83L28.43-72.83L28.43-72.83Q35.55-75.15 43.80-75.15L43.80-75.15L43.80-75.15Q46.80-75.15 49.65-74.63L49.65-74.63L49.65-74.63Q52.50-74.10 54.30-73.35L54.30-73.35L54.30-97.65L54.30-97.65Q55.80-98.10 59.10-98.63L59.10-98.63L59.10-98.63Q62.40-99.15 65.85-99.15L65.85-99.15L65.85-99.15Q69.15-99.15 71.77-98.70L71.77-98.70L71.77-98.70Q74.40-98.25 76.20-96.90L76.20-96.90L76.20-96.90Q78-95.55 78.90-93.22L78.90-93.22L78.90-93.22Q79.80-90.90 79.80-87.15L79.80-87.15L79.80-16.05L79.80-16.05Q79.80-9 73.20-4.80L73.20-4.80L73.20-4.80Q68.85-1.95 61.95 0.22L61.95 0.22L61.95 0.22Q55.05 2.40 46.05 2.40L46.05 2.40L46.05 2.40Q36.30 2.40 28.57-0.30L28.57-0.30L28.57-0.30Q20.85-3 15.52-8.10L15.52-8.10L15.52-8.10Q10.20-13.20 7.42-20.32L7.42-20.32L7.42-20.32Q4.65-27.45 4.65-36.45ZM47.25-55.20L47.25-55.20L47.25-55.20Q39.15-55.20 34.80-50.55L34.80-50.55L34.80-50.55Q30.45-45.90 30.45-36.45L30.45-36.45L30.45-36.45Q30.45-27.15 34.50-22.43L34.50-22.43L34.50-22.43Q38.55-17.70 46.20-17.70L46.20-17.70L46.20-17.70Q48.90-17.70 51.07-18.52L51.07-18.52L51.07-18.52Q53.25-19.35 54.45-20.40L54.45-20.40L54.45-53.40L54.45-53.40Q51.45-55.20 47.25-55.20ZM126.90-16.20L126.90-16.20L126.90-16.20Q129.45-16.20 132.52-16.72L132.52-16.72L132.52-16.72Q135.60-17.25 137.10-18.15L137.10-18.15L137.10-30.15L126.30-29.25L126.30-29.25Q122.10-28.95 119.40-27.45L119.40-27.45L119.40-27.45Q116.70-25.95 116.70-22.95L116.70-22.95L116.70-22.95Q116.70-19.95 119.02-18.07L119.02-18.07L119.02-18.07Q121.35-16.20 126.90-16.20ZM125.70-75.15L125.70-75.15L125.70-75.15Q133.80-75.15 140.47-73.50L140.47-73.50L140.47-73.50Q147.15-71.85 151.88-68.47L151.88-68.47L151.88-68.47Q156.60-65.10 159.15-59.92L159.15-59.92L159.15-59.92Q161.70-54.75 161.70-47.70L161.70-47.70L161.70-14.10L161.70-14.10Q161.70-10.20 159.52-7.72L159.52-7.72L159.52-7.72Q157.35-5.25 154.35-3.45L154.35-3.45L154.35-3.45Q144.60 2.40 126.90 2.40L126.90 2.40L126.90 2.40Q118.95 2.40 112.57 0.90L112.57 0.90L112.57 0.90Q106.20-0.60 101.62-3.60L101.62-3.60L101.62-3.60Q97.05-6.60 94.57-11.25L94.57-11.25L94.57-11.25Q92.10-15.90 92.10-22.05L92.10-22.05L92.10-22.05Q92.10-32.40 98.25-37.95L98.25-37.95L98.25-37.95Q104.40-43.50 117.30-44.85L117.30-44.85L136.95-46.95L136.95-48L136.95-48Q136.95-52.35 133.13-54.23L133.13-54.23L133.13-54.23Q129.30-56.10 122.10-56.10L122.10-56.10L122.10-56.10Q116.40-56.10 111.00-54.90L111.00-54.90L111.00-54.90Q105.60-53.70 101.25-51.90L101.25-51.90L101.25-51.90Q99.30-53.25 97.95-56.02L97.95-56.02L97.95-56.02Q96.60-58.80 96.60-61.80L96.60-61.80L96.60-61.80Q96.60-65.70 98.47-68.02L98.47-68.02L98.47-68.02Q100.35-70.35 104.25-72L104.25-72L104.25-72Q108.60-73.65 114.52-74.40L114.52-74.40L114.52-74.40Q120.45-75.15 125.70-75.15ZM223.50-10.80L223.50-46.20L223.50-46.20Q223.50-50.85 220.88-53.02L220.88-53.02L220.88-53.02Q218.25-55.20 213.75-55.20L213.75-55.20L213.75-55.20Q210.75-55.20 207.82-54.45L207.82-54.45L207.82-54.45Q204.90-53.70 202.80-52.20L202.80-52.20L202.80-0.15L202.80-0.15Q201.30 0.30 198.07 0.75L198.07 0.75L198.07 0.75Q194.85 1.20 191.40 1.20L191.40 1.20L191.40 1.20Q188.10 1.20 185.47 0.75L185.47 0.75L185.47 0.75Q182.85 0.30 181.05-1.05L181.05-1.05L181.05-1.05Q179.25-2.40 178.28-4.72L178.28-4.72L178.28-4.72Q177.30-7.05 177.30-10.80L177.30-10.80L177.30-55.80L177.30-55.80Q177.30-59.85 179.03-62.40L179.03-62.40L179.03-62.40Q180.75-64.95 183.75-67.05L183.75-67.05L183.75-67.05Q188.85-70.65 196.57-72.90L196.57-72.90L196.57-72.90Q204.30-75.15 213.75-75.15L213.75-75.15L213.75-75.15Q230.70-75.15 239.85-67.72L239.85-67.72L239.85-67.72Q249-60.30 249-47.10L249-47.10L249-0.15L249-0.15Q247.50 0.30 244.27 0.75L244.27 0.75L244.27 0.75Q241.05 1.20 237.60 1.20L237.60 1.20L237.60 1.20Q234.30 1.20 231.68 0.75L231.68 0.75L231.68 0.75Q229.05 0.30 227.25-1.05L227.25-1.05L227.25-1.05Q225.45-2.40 224.47-4.72L224.47-4.72L224.47-4.72Q223.50-7.05 223.50-10.80L223.50-10.80ZM260.25-12.15L260.25-12.15L260.25-12.15Q260.25-18.45 264.15-22.65L264.15-22.65L264.15-22.65Q268.05-26.85 274.80-26.85L274.80-26.85L274.80-26.85Q281.55-26.85 285.45-22.65L285.45-22.65L285.45-22.65Q289.35-18.45 289.35-12.15L289.35-12.15L289.35-12.15Q289.35-5.85 285.45-1.65L285.45-1.65L285.45-1.65Q281.55 2.55 274.80 2.55L274.80 2.55L274.80 2.55Q268.05 2.55 264.15-1.65L264.15-1.65L264.15-1.65Q260.25-5.85 260.25-12.15ZM362.70-21.75L362.70-21.75L362.70-21.75Q362.70-10.35 354.15-3.90L354.15-3.90L354.15-3.90Q345.60 2.55 328.95 2.55L328.95 2.55L328.95 2.55Q322.65 2.55 317.25 1.65L317.25 1.65L317.25 1.65Q311.85 0.75 308.02-1.13L308.02-1.13L308.02-1.13Q304.20-3 302.02-5.85L302.02-5.85L302.02-5.85Q299.85-8.70 299.85-12.60L299.85-12.60L299.85-12.60Q299.85-16.20 301.35-18.68L301.35-18.68L301.35-18.68Q302.85-21.15 304.95-22.80L304.95-22.80L304.95-22.80Q309.30-20.40 314.92-18.52L314.92-18.52L314.92-18.52Q320.55-16.65 327.90-16.65L327.90-16.65L327.90-16.65Q332.55-16.65 335.02-18L335.02-18L335.02-18Q337.50-19.35 337.50-21.60L337.50-21.60L337.50-21.60Q337.50-23.70 335.70-24.90L335.70-24.90L335.70-24.90Q333.90-26.10 329.70-26.85L329.70-26.85L325.20-27.75L325.20-27.75Q312.15-30.30 305.77-35.77L305.77-35.77L305.77-35.77Q299.40-41.25 299.40-51.45L299.40-51.45L299.40-51.45Q299.40-57 301.80-61.50L301.80-61.50L301.80-61.50Q304.20-66 308.55-69L308.55-69L308.55-69Q312.90-72 318.97-73.65L318.97-73.65L318.97-73.65Q325.05-75.30 332.40-75.30L332.40-75.30L332.40-75.30Q337.95-75.30 342.82-74.47L342.82-74.47L342.82-74.47Q347.70-73.65 351.30-72L351.30-72L351.30-72Q354.90-70.35 357-67.72L357-67.72L357-67.72Q359.10-65.10 359.10-61.50L359.10-61.50L359.10-61.50Q359.10-58.05 357.82-55.57L357.82-55.57L357.82-55.57Q356.55-53.10 354.60-51.45L354.60-51.45L354.60-51.45Q353.40-52.20 351-53.02L351-53.02L351-53.02Q348.60-53.85 345.75-54.52L345.75-54.52L345.75-54.52Q342.90-55.20 339.97-55.65L339.97-55.65L339.97-55.65Q337.05-56.10 334.65-56.10L334.65-56.10L334.65-56.10Q329.70-56.10 327-54.98L327-54.98L327-54.98Q324.30-53.85 324.30-51.45L324.30-51.45L324.30-51.45Q324.30-49.80 325.80-48.75L325.80-48.75L325.80-48.75Q327.30-47.70 331.50-46.80L331.50-46.80L336.15-45.75L336.15-45.75Q350.55-42.45 356.63-36.67L356.63-36.67L356.63-36.67Q362.70-30.90 362.70-21.75ZM409.95-75.15L409.95-75.15L409.95-75.15Q416.10-75.15 422.02-73.42L422.02-73.42L422.02-73.42Q427.95-71.70 432.30-68.25L432.30-68.25L432.30-68.25Q436.80-71.25 442.42-73.20L442.42-73.20L442.42-73.20Q448.05-75.15 456-75.15L456-75.15L456-75.15Q461.70-75.15 467.17-73.65L467.17-73.65L467.17-73.65Q472.65-72.15 476.92-68.92L476.92-68.92L476.92-68.92Q481.20-65.70 483.75-60.38L483.75-60.38L483.75-60.38Q486.30-55.05 486.30-47.40L486.30-47.40L486.30-0.15L486.30-0.15Q484.80 0.30 481.57 0.75L481.57 0.75L481.57 0.75Q478.35 1.20 474.90 1.20L474.90 1.20L474.90 1.20Q471.60 1.20 468.97 0.75L468.97 0.75L468.97 0.75Q466.35 0.30 464.55-1.05L464.55-1.05L464.55-1.05Q462.75-2.40 461.77-4.72L461.77-4.72L461.77-4.72Q460.80-7.05 460.80-10.80L460.80-10.80L460.80-46.65L460.80-46.65Q460.80-51.15 458.25-53.17L458.25-53.17L458.25-53.17Q455.70-55.20 451.35-55.20L451.35-55.20L451.35-55.20Q449.25-55.20 446.85-54.23L446.85-54.23L446.85-54.23Q444.45-53.25 443.25-52.20L443.25-52.20L443.25-52.20Q443.40-51.60 443.40-51.07L443.40-51.07L443.40-51.07Q443.40-50.55 443.40-50.10L443.40-50.10L443.40-0.15L443.40-0.15Q441.75 0.30 438.52 0.75L438.52 0.75L438.52 0.75Q435.30 1.20 432 1.20L432 1.20L432 1.20Q428.70 1.20 426.07 0.75L426.07 0.75L426.07 0.75Q423.45 0.30 421.65-1.05L421.65-1.05L421.65-1.05Q419.85-2.40 418.88-4.72L418.88-4.72L418.88-4.72Q417.90-7.05 417.90-10.80L417.90-10.80L417.90-46.65L417.90-46.65Q417.90-51.15 415.13-53.17L415.13-53.17L415.13-53.17Q412.35-55.20 408.45-55.20L408.45-55.20L408.45-55.20Q405.75-55.20 403.80-54.38L403.80-54.38L403.80-54.38Q401.85-53.55 400.50-52.80L400.50-52.80L400.50-0.15L400.50-0.15Q399 0.30 395.77 0.75L395.77 0.75L395.77 0.75Q392.55 1.20 389.10 1.20L389.10 1.20L389.10 1.20Q385.80 1.20 383.18 0.75L383.18 0.75L383.18 0.75Q380.55 0.30 378.75-1.05L378.75-1.05L378.75-1.05Q376.95-2.40 375.97-4.72L375.97-4.72L375.97-4.72Q375-7.05 375-10.80L375-10.80L375-56.10L375-56.10Q375-60.15 376.72-62.55L376.72-62.55L376.72-62.55Q378.45-64.95 381.45-67.05L381.45-67.05L381.45-67.05Q386.55-70.65 394.13-72.90L394.13-72.90L394.13-72.90Q401.70-75.15 409.95-75.15Z"/></g></g><style>text {
  font-size: 64px;
  font-family: Arial Black;
  dominant-baseline: central;
  text-anchor: middle;
}</style></svg>